<?xml version="1.0" encoding="utf-8"?>
<!-- Generator: Adobe Illustrator 25.2.3, SVG Export Plug-In . SVG Version: 6.00 Build 0)  -->
<svg version="1.1" id="Layer_1" xmlns="http://www.w3.org/2000/svg" xmlns:xlink="http://www.w3.org/1999/xlink" x="0px" y="0px"
	 viewBox="0 0 511.1 75.6" style="enable-background:new 0 0 511.1 75.6;" xml:space="preserve">
<style type="text/css">
	.st0{fill:#D51E5D;}
	.st1{fill:#253646;}
</style>
<path class="st0" d="M61.5,22.8c-0.8-1.4-2-3-4.4-3H41.2c-0.9,0-1.7,0.3-2.1,1C38,18.9,35.3,14.4,28.8,3c-0.8-1.4-2-3-4.4-3H8.5
	C7.6,0,6.8,0.3,6.4,1C5.9,1.7,6,2.6,6.5,3.5L17.2,22c0.1,0.1,0.1,0.1,0,0.1L0.3,51.9c-0.5,0.9-0.4,1.7,0,2.4
	c0.4,0.7,1.1,1.1,2.1,1.1h15.9c2.3,0,3.5-1.6,4.3-3.1c11.3-20,15.1-26.9,16.4-29.2c0,0,0,0,0,0l10.7,18.6c0.1,0.1,0.1,0.1,0,0.1
	L33,71.7c-0.5,0.9-0.4,1.7,0,2.4c0.4,0.7,1.1,1.1,2.1,1.1h15.9c2.3,0,3.5-1.6,4.3-3.1C71.7,43,72.4,41.8,72.4,41.8
	S72.3,41.8,61.5,22.8z"/>
<g>
	<path class="st1" d="M330.3,61.6l6.5,5.9c-4.6,5.4-10.7,8.1-17.9,8.1c-12.7,0-21.2-8.1-21.2-20.3c0-12,7.9-20.3,20.4-20.3
		c11.5-0.1,19.2,7,19.6,18.3l-27.5,7.2c1.7,3.8,5.1,6.1,9.5,6.1C323.6,66.8,327.3,65,330.3,61.6z M309.2,53.8l17.5-4.7
		c-1.3-3.8-4-5.6-7.8-5.6C313.2,43.5,309.5,47.1,309.2,53.8z"/>
	<path class="st1" d="M472.4,61.6l6.5,5.9c-4.6,5.4-10.7,8.1-17.9,8.1c-12.7,0-21.2-8.1-21.2-20.3c0-12,7.9-20.3,20.4-20.3
		c11.5-0.1,19.2,7,19.6,18.3l-27.5,7.2c1.7,3.8,5.1,6.1,9.5,6.1C465.6,66.8,469.3,65,472.4,61.6z M451.2,53.8l17.5-4.7
		c-1.3-3.8-4-5.6-7.8-5.6C455.2,43.5,451.6,47.1,451.2,53.8z"/>
</g>
<g>
	<path class="st1" d="M132.7,50.2v25h-11.4V53.5c0-5-3-8.1-7.8-8.1c-5.7,0.1-9.1,4.4-9.1,10.2v19.6H92.9V35.4h11.4v7
		c2.8-5,7.5-7.3,13.8-7.4C127,34.9,132.7,40.9,132.7,50.2z"/>
	<path class="st1" d="M181.2,55.3c0,12.1-8.6,20.4-21.3,20.4c-12.8,0-21.4-8.2-21.4-20.4c0-12.2,8.6-20.3,21.4-20.3
		C172.6,35,181.2,43.1,181.2,55.3z M149.9,55.4c0,6.5,4.1,11,10,11c5.8,0,9.9-4.4,9.9-11c0-6.5-4.1-11-9.9-11
		C154,44.5,149.9,48.9,149.9,55.4z"/>
	<path class="st1" d="M192.7,35.4l9.4,29l9.3-29h11.3l-15,39.8h-11.7L181,35.5L192.7,35.4z"/>
	<path class="st1" d="M265.1,55.3c0,12.1-8.6,20.4-21.3,20.4c-12.8,0-21.4-8.2-21.4-20.4c0-12.2,8.6-20.3,21.4-20.3
		C256.6,35,265.1,43.1,265.1,55.3z M233.8,55.4c0,6.5,4.1,11,10,11c5.8,0,9.9-4.4,9.9-11c0-6.5-4.1-11-9.9-11
		C237.9,44.5,233.8,48.9,233.8,55.4z"/>
	<path class="st1" d="M296.2,34.9v10.7c-8.1-0.7-13.2,3.6-13.2,10.4v19.2h-11.4V35.4h11.4v7.2C285.8,37.7,290.3,35,296.2,34.9z"/>
	<path class="st1" d="M384.5,50.2v25h-11.4V53.5c0-5-3-8.1-7.8-8.1c-5.7,0.1-9.1,4.4-9.1,10.2v19.6h-11.4V35.4h11.4v7
		c2.8-5,7.5-7.3,13.8-7.4C378.8,34.9,384.5,40.9,384.5,50.2z"/>
	<path class="st1" d="M433.3,20.3v54.9h-11.3v-5.8c-2.8,4.1-7.1,6.3-12.6,6.3c-11.3,0-18.8-8.2-18.8-20.5c0-12.1,7.4-20.2,18.5-20.2
		c5.6,0,10,2.2,12.9,6.3V20.3H433.3z M421.9,55.4c0-6.5-4.1-11-9.9-11c-5.9,0-10,4.6-10.1,11c0.1,6.5,4.1,11,10.1,11
		C417.9,66.5,421.9,61.9,421.9,55.4z"/>
	<path class="st1" d="M511.1,34.9v10.7c-8.1-0.7-13.2,3.6-13.2,10.4v19.2h-11.4V35.4h11.4v7.2C500.7,37.7,505.2,35,511.1,34.9z"/>
</g>
</svg>
