<?xml version="1.0" standalone="no"?>
<!DOCTYPE svg PUBLIC "-//W3C//DTD SVG 20010904//EN"
 "http://www.w3.org/TR/2001/REC-SVG-20010904/DTD/svg10.dtd">
<svg version="1.0" xmlns="http://www.w3.org/2000/svg"
 width="20px" height="20px" viewBox="0 0 24 24"
 preserveAspectRatio="xMidYMid meet">

<g transform="translate(0.000000,24.000000) scale(0.100000,-0.100000)"
>
<path d="M100 211 c-13 -25 -13 -118 0 -126 12 -7 4 -25 -11 -25 -5 0 -9 20
-9 44 0 36 -5 47 -25 60 l-25 16 0 -74 c0 -81 15 -111 45 -86 12 10 18 10 30
0 12 -10 18 -10 30 0 13 10 19 10 34 -4 30 -27 42 0 39 89 l-3 76 -22 -21
c-17 -15 -23 -32 -23 -60 0 -22 -4 -40 -9 -40 -15 0 -23 18 -11 25 24 15 6
145 -20 145 -5 0 -14 -9 -20 -19z m30 -66 c0 -30 -4 -55 -10 -55 -5 0 -10 25
-10 55 0 30 5 55 10 55 6 0 10 -25 10 -55z m-70 -44 c0 -22 5 -43 11 -47 7 -4
7 -10 1 -16 -6 -6 -15 -7 -21 -4 -14 9 -15 106 -1 106 6 0 10 -18 10 -39z
m140 -10 c0 -50 -10 -68 -31 -55 -8 4 -8 9 0 17 6 6 11 28 11 49 0 21 5 38 10
38 6 0 10 -22 10 -49z m-65 -40 c7 -12 -12 -24 -25 -16 -11 7 -4 25 10 25 5 0
11 -4 15 -9z"/>
</g>
</svg>
