<svg width="24" height="24" viewBox="0 0 24 24" fill="none" xmlns="http://www.w3.org/2000/svg">
<path d="M8.03464 6.3665C8.2263 5.94984 8.33464 5.4915 8.33464 4.99984C8.33464 3.15817 6.84297 1.6665 5.0013 1.6665C3.15964 1.6665 1.66797 3.15817 1.66797 4.99984C1.66797 6.8415 3.15964 8.33317 5.0013 8.33317C5.49297 8.33317 5.9513 8.22484 6.36797 8.03317L8.33464 9.99984L6.36797 11.9665C5.9513 11.7748 5.49297 11.6665 5.0013 11.6665C3.15964 11.6665 1.66797 13.1582 1.66797 14.9998C1.66797 16.8415 3.15964 18.3332 5.0013 18.3332C6.84297 18.3332 8.33464 16.8415 8.33464 14.9998C8.33464 14.5082 8.2263 14.0498 8.03464 13.6332L10.0013 11.6665L15.8346 17.4998H18.3346V16.6665L8.03464 6.3665ZM5.0013 6.6665C4.08464 6.6665 3.33464 5.92484 3.33464 4.99984C3.33464 4.07484 4.08464 3.33317 5.0013 3.33317C5.91797 3.33317 6.66797 4.07484 6.66797 4.99984C6.66797 5.92484 5.91797 6.6665 5.0013 6.6665ZM5.0013 16.6665C4.08464 16.6665 3.33464 15.9248 3.33464 14.9998C3.33464 14.0748 4.08464 13.3332 5.0013 13.3332C5.91797 13.3332 6.66797 14.0748 6.66797 14.9998C6.66797 15.9248 5.91797 16.6665 5.0013 16.6665ZM10.0013 10.4165C9.76797 10.4165 9.58464 10.2332 9.58464 9.99984C9.58464 9.7665 9.76797 9.58317 10.0013 9.58317C10.2346 9.58317 10.418 9.7665 10.418 9.99984C10.418 10.2332 10.2346 10.4165 10.0013 10.4165ZM15.8346 2.49984L10.8346 7.49984L12.5013 9.1665L18.3346 3.33317V2.49984H15.8346Z" fill="#768692"/>
</svg>
