<svg width="24" height="24" version="1.1" viewBox="0 0 6.35 6.35" xmlns="http://www.w3.org/2000/svg">
    <path
        d="m3.1758 1.0586c-1.0914 0-2.1928 0.40545-2.7559 1.25-0.040924 0.06042-0.025194 0.14257 0.035156 0.18359 0.060928 0.040541 0.14319 0.023913 0.18359-0.037109 0.4953-0.74295 1.5118-1.1328 2.5371-1.1328 1.0253 0 2.0399 0.38987 2.5352 1.1328 0.040399 0.061022 0.12267 0.07765 0.18359 0.037109 0.061022-0.040399 0.07765-0.12267 0.037109-0.18359-0.56303-0.84455-1.6645-1.25-2.7559-1.25zm0 3.6191c-0.42115 0-0.84551 0.14044-1.1406 0.43555-0.051938 0.05171-0.051938 0.13579 0 0.1875 0.051482 0.050644 0.13406 0.050644 0.18555 0 0.23405-0.23405 0.59356-0.35742 0.95508-0.35742 0.36152 0 0.71907 0.12337 0.95312 0.35742 0.05171 0.051938 0.13579 0.051938 0.1875 0 0.051938-0.05171 0.051938-0.13579 0-0.1875-0.29511-0.29511-0.71948-0.43555-1.1406-0.43555zm0-2.2969c-0.42627 0-0.85658 0.13978-1.1523 0.43555-0.12292 0.12238 0.065124 0.31042 0.1875 0.1875 0.2334-0.2334 0.59737-0.35742 0.96484-0.35742 0.36748 0 0.73144 0.12402 0.96484 0.35742 0.051482 0.050644 0.13407 0.050644 0.18555 0 0.051938-0.05171 0.051938-0.13579 0-0.1875-0.29576-0.29576-0.72412-0.43555-1.1504-0.43555zm2.6035-0.125-1.5879 0.5293c-0.0536 0.018163-0.089713 0.068406-0.089844 0.125l-0.011718 2.2969c-7.832e-4 0.095064 0.095962 0.1599 0.18359 0.12305l1.5996-0.67773c0.049088-0.021086 0.080677-0.069625 0.080078-0.12305v-2.1484c-4.208e-4 -0.089905-0.088465-0.15322-0.17383-0.125zm-0.089844 0.30859v1.8789l-1.334 0.56445 0.00977-2.002zm-1.4672 2.6429 1.5986-0.67723 1e-7 -2.1489-1.5875 0.52917zm-3.6519-2.9515c-0.085364-0.028218-0.17341 0.035095-0.17383 0.125v2.1484c-2.7092e-4 0.053895 0.032178 0.10257 0.082031 0.12305l1.5977 0.67773c0.087632 0.036857 0.18438-0.027983 0.18359-0.12305l-0.011719-2.2969c-1.31e-4 -0.056594-0.036244-0.10684-0.089844-0.125zm-0.041146 2.2743-1e-7 -2.1489z"
        color="currentColor" fill="currentColor" stroke-linecap="round" stroke-linejoin="round" />
</svg>
   