<svg width="26" height="24" viewBox="0 0 26 24" fill="white" xmlns="http://www.w3.org/2000/svg">
<path d="M21.9205 7.11153C21.6352 6.67466 21.2073 6.17539 20.3514 6.17539H14.6739C14.3423 6.17539 14.057 6.27837 13.9143 6.48744C13.5363 5.91327 12.6019 4.49034 10.2803 0.936138C9.99502 0.499274 9.56707 0 8.71117 0H3.03729C2.70206 0 2.42033 0.102975 2.27768 0.312046C2.11006 0.521117 2.13503 0.81132 2.30264 1.07968L6.12565 6.87749C6.15061 6.89934 6.15061 6.89934 6.12565 6.89934L0.116536 16.2108C-0.051077 16.4823 -0.0261133 16.7506 0.116536 16.9597C0.259186 17.1688 0.519521 17.3123 0.851182 17.3123H6.52863C7.35957 17.3123 7.76255 16.813 8.07282 16.3574C12.092 10.104 13.4685 7.97277 13.9393 7.24883C13.9393 7.25195 13.9393 7.25507 13.9428 7.25819L17.7659 13.056C17.7908 13.0778 17.7908 13.0778 17.7659 13.0778L11.7532 22.3862C11.5856 22.6577 11.6105 22.926 11.7532 23.1351C11.8958 23.3442 12.1562 23.4877 12.4878 23.4877H18.1653C18.9962 23.4877 19.3992 22.9884 19.7095 22.5328C25.5759 13.4086 25.8149 13.056 25.8149 13.056C25.8149 13.056 25.7899 13.0342 21.9205 7.11153Z"/>
</svg>
