<svg width="20" height="20" viewBox="0 0 9 10" fill="currentColor" xmlns="http://www.w3.org/2000/svg">
<path fill-rule="evenodd" clip-rule="evenodd" d="M5.50949 1C5.50949 0.447715 5.95799 0 6.51124 0C7.06449 0 7.51299 0.447715 7.51299 1C7.51299 1.55228 7.06449 2 6.51124 2C5.95799 2 5.50949 1.55228 5.50949 1ZM8.31477 4.375L7.34808 4.18C7.23491 4.1548 7.13401 4.09118 7.06258 4L5.95064 2.705C5.56978 2.25753 5.01117 1.99974 4.42297 2H2.89029C2.57144 2.00077 2.272 2.15301 2.08388 2.41L1.24241 3.565C1.2036 3.61927 1.18811 3.68678 1.1994 3.7525C1.21069 3.81823 1.24781 3.87673 1.30252 3.915L1.70322 4.205C1.75649 4.24562 1.82408 4.26272 1.8903 4.25234C1.95653 4.24195 2.01561 4.20497 2.05383 4.15L2.7801 3.15C2.85313 3.0554 2.966 2.99999 3.08563 3H3.86199L2.64987 4.605L2.56973 4.715C2.48722 4.82454 2.45336 4.96309 2.47609 5.09826C2.49881 5.23342 2.57612 5.35335 2.68994 5.43L4.84371 6.86C4.94634 6.93236 5.00785 7.04958 5.00899 7.175V9.75C5.00899 9.88807 5.12112 10 5.25943 10H5.76031C5.89862 10 6.01074 9.88807 6.01074 9.75V7C6.0118 6.66466 5.84441 6.35111 5.56497 6.165L4.50812 5.445L5.66013 3.92L6.28623 4.66C6.50549 4.9177 6.80554 5.09389 7.13771 5.16L8.19957 5.37C8.27326 5.38502 8.34981 5.36618 8.40807 5.31868C8.46632 5.27119 8.50011 5.20008 8.50009 5.125V4.625C8.50408 4.50878 8.42727 4.40517 8.31477 4.375ZM1.8883 7C2.00673 7.0008 2.11841 6.94505 2.18882 6.85L2.53443 6.38L3.38091 6.935L2.88003 7.6C2.69085 7.8518 2.39394 8 2.07863 8H0.250438C0.112125 8 0 7.88807 0 7.75V7.25C0 7.11192 0.112125 7 0.250438 7H1.8883Z"/>
</svg>
