<svg width="20" height="20" viewBox="0 0 10 10" fill="currentColor" xmlns="http://www.w3.org/2000/svg">
<path d="M8.79922 0.200012C8.534 0.200012 8.27965 0.305369 8.09211 0.492905C7.90458 0.680442 7.79922 0.934796 7.79922 1.20001C7.79922 1.46523 7.90458 1.71958 8.09211 1.90712C8.27965 2.09466 8.534 2.20001 8.79922 2.20001C9.06444 2.20001 9.31879 2.09466 9.50633 1.90712C9.69386 1.71958 9.79922 1.46523 9.79922 1.20001C9.79922 0.934796 9.69386 0.680442 9.50633 0.492905C9.31879 0.305369 9.06444 0.200012 8.79922 0.200012ZM5.37813 0.600793C5.35897 0.601767 5.33991 0.604117 5.32109 0.607825L3.32109 1.00782C3.21925 1.02802 3.12925 1.08701 3.07011 1.17234C3.01096 1.25767 2.98731 1.36266 3.00415 1.4651C3.02099 1.56755 3.077 1.65944 3.16034 1.72136C3.24369 1.78327 3.34783 1.81035 3.45078 1.79689L5.375 1.56564L5.96719 2.20001L4.24922 3.56564C4.11104 3.65663 3.9976 3.78049 3.91907 3.92611C3.84053 4.07173 3.79935 4.23456 3.79922 4.40001C3.7995 4.63991 3.88601 4.87171 4.04297 5.05314L5.14766 6.43439L2.99922 6.60001C2.9987 6.60001 2.99818 6.60001 2.99766 6.60001L2.98828 6.60079C2.93428 6.59914 2.8805 6.60844 2.83019 6.62813C2.77988 6.64783 2.73409 6.67751 2.69556 6.71538C2.65703 6.75326 2.62658 6.79855 2.60603 6.84852C2.58549 6.89849 2.57528 6.9521 2.57602 7.00612C2.57676 7.06014 2.58843 7.11345 2.61034 7.16284C2.63224 7.21223 2.66392 7.25667 2.70347 7.29347C2.74302 7.33028 2.78961 7.3587 2.84044 7.37701C2.89127 7.39532 2.94528 7.40314 2.99922 7.40001H5.975C6.41621 7.40001 6.71397 6.91069 6.53672 6.51798L6.54141 6.51329L5.79922 4.86486L7.04844 3.87657L7.41406 4.70782C7.42423 4.74416 7.43948 4.77888 7.45938 4.81095L7.46172 4.81564H7.4625C7.49867 4.87214 7.54846 4.91864 7.6073 4.95085C7.66614 4.98307 7.73214 4.99998 7.79922 5.00001H9.39922C9.4522 5.00094 9.50484 4.99133 9.55408 4.97174C9.60332 4.95216 9.64818 4.92298 9.68605 4.88592C9.72392 4.84885 9.75404 4.80463 9.77468 4.75582C9.79532 4.70701 9.80605 4.65459 9.80626 4.6016C9.80646 4.5486 9.79614 4.4961 9.77588 4.44713C9.75563 4.39816 9.72585 4.35371 9.68827 4.31635C9.65069 4.27898 9.60607 4.24946 9.55698 4.22949C9.5079 4.20952 9.45533 4.1995 9.40234 4.20001L8.10703 4.09454L7.78594 2.6422C7.77957 2.60159 7.77069 2.56141 7.75938 2.52189L7.75859 2.52111C7.68813 2.27989 7.52942 2.07405 7.31406 1.94454L5.64063 0.680481C5.56525 0.623809 5.47228 0.595586 5.37813 0.600793ZM1.39922 2.60001L0.999219 3.00001H3.27344L3.77734 2.60001H1.39922ZM0.199219 3.80001V4.20001H2.61875C2.63475 4.06321 2.66376 3.92921 2.71016 3.80001H0.199219ZM0.599219 5.00001L0.999219 5.40001H2.91406C2.82886 5.27401 2.75705 5.14121 2.70625 5.00001H0.599219ZM4.59922 8.20001L3.88125 9.15704C3.82798 9.22684 3.79916 9.31221 3.79922 9.40001C3.79922 9.5061 3.84136 9.60784 3.91638 9.68285C3.99139 9.75787 4.09313 9.80001 4.19922 9.80001C4.25735 9.80005 4.3148 9.78743 4.36755 9.76301C4.42031 9.73858 4.46711 9.70296 4.50469 9.65861L4.50547 9.65782C4.50573 9.65756 4.50599 9.6573 4.50625 9.65704L5.75938 8.20001H4.59922Z" />
</svg>
