<svg width="20" height="20" viewBox="0 0 8 10" fill="currentColor" xmlns="http://www.w3.org/2000/svg">
<path fill-rule="evenodd" clip-rule="evenodd" d="M5.50028 1.5C5.50028 2.05228 5.05256 2.5 4.50028 2.5C3.94799 2.5 3.50028 2.05228 3.50028 1.5C3.50028 0.947715 3.94799 0.5 4.50028 0.5C5.05256 0.5 5.50028 0.947715 5.50028 1.5ZM7.50063 5.12372V5.62579C7.50064 5.70118 7.46691 5.77258 7.40876 5.82027C7.35061 5.86796 7.27419 5.88688 7.20063 5.8718L6.13063 5.65591C5.80182 5.58596 5.50496 5.40958 5.28563 5.15385L4.78563 4.59154L4.38063 6.94621L5.10563 7.63906C5.24782 7.77536 5.34841 7.94951 5.39563 8.14112L6.03063 11.1987C6.04766 11.2728 6.02958 11.3507 5.98166 11.4096C5.93374 11.4685 5.86136 11.5019 5.78563 11.4999H5.28563C5.16611 11.502 5.06257 11.4171 5.04063 11.2991L4.47063 8.52269C4.45038 8.41869 4.39787 8.32379 4.32063 8.25157L2.65563 6.6751C2.53313 6.55939 2.47677 6.38961 2.50563 6.22324L2.82563 4.36059L2.19563 4.78232C2.09606 4.84846 2.02334 4.94819 1.99063 5.06348L1.63063 6.3337C1.59952 6.4408 1.50174 6.51444 1.39063 6.51444H0.890627C0.811938 6.51444 0.737841 6.47724 0.690627 6.41403C0.643414 6.35081 0.628594 6.26897 0.650627 6.19312L1.08063 4.6066C1.14859 4.37448 1.29773 4.1748 1.50063 4.04429L2.43563 3.41671C2.84492 3.14481 3.32487 2.99988 3.81563 3H4.07063C4.51165 2.99975 4.93043 3.1944 5.21563 3.53219L6.05063 4.50619C6.1235 4.59401 6.22404 4.65423 6.33563 4.67689L7.30063 4.86767C7.42082 4.89221 7.50554 5.00067 7.50063 5.12372ZM2.71061 7.92V7.975C2.69553 8.06569 2.65574 8.15046 2.59561 8.22L1.23061 9.755C1.13532 9.85221 1.13532 10.0078 1.23061 10.105L1.61061 10.44C1.65998 10.4839 1.72498 10.506 1.79088 10.5013C1.85678 10.4966 1.91798 10.4655 1.96061 10.415L3.40561 8.775C3.43497 8.74392 3.46173 8.71047 3.48561 8.675L2.71061 7.92Z" />
</svg>
